# Blender v2.92.0 OBJ File: ''
# www.blender.org
o Circle
v -0.019818 0.000000 -0.488558
v 0.019818 0.000000 -0.488558
v -0.433013 0.000000 -0.227116
v -0.413195 0.000000 -0.261442
v -0.413195 0.000000 0.261442
v -0.433013 0.000000 0.227116
v 0.019818 0.000000 0.488558
v -0.019818 0.000000 0.488558
v 0.433013 0.000000 0.227116
v 0.413195 0.000000 0.261442
v 0.413195 0.000000 -0.261442
v 0.433013 0.000000 -0.227116
v 0.019933 0.500000 -0.457464
v -0.019933 0.500000 -0.457464
v -0.019906 0.473129 -0.488507
v 0.019906 0.473129 -0.488507
v -0.413107 0.473129 -0.261493
v -0.433013 0.473129 -0.227014
v -0.386209 0.500000 -0.245994
v -0.406141 0.500000 -0.211470
v -0.433013 0.473129 0.227014
v -0.413107 0.473129 0.261493
v -0.406141 0.500000 0.211470
v -0.386209 0.500000 0.245994
v -0.019906 0.473129 0.488507
v 0.019906 0.473129 0.488507
v -0.019933 0.500000 0.457464
v 0.019933 0.500000 0.457464
v 0.413107 0.473129 0.261493
v 0.433013 0.473129 0.227014
v 0.386209 0.500000 0.245994
v 0.406141 0.500000 0.211470
v 0.413107 0.473129 -0.261493
v 0.433013 0.473129 -0.227014
v 0.406141 0.500000 -0.211470
v 0.386209 0.500000 -0.245994
vt 0.052750 0.260893
vt 0.052497 0.264794
vt 0.043836 0.267883
vt 0.043533 0.264384
vt 0.047167 0.198660
vt 0.047695 0.198207
vt 0.052202 0.219017
vt 0.052515 0.223066
vt 0.036156 0.816078
vt 0.035565 0.807884
vt 0.035565 0.707507
vt 0.047022 0.866266
vt 0.047782 0.121392
vt 0.061198 0.168042
vt 0.060214 0.176832
vt 0.047457 0.130850
vt 0.059662 0.807884
vt 0.059071 0.816078
vt 0.048205 0.866266
vt 0.059662 0.707507
vt 0.062003 0.180714
vt 0.062003 0.297978
vt 0.060635 0.295113
vt 0.060741 0.182959
vt 0.034237 0.305800
vt 0.033695 0.190408
vt 0.035061 0.192885
vt 0.035459 0.303443
vt 0.061026 0.308672
vt 0.049263 0.364127
vt 0.048866 0.353983
vt 0.060233 0.301329
vt 0.034616 0.179506
vt 0.046200 0.121208
vt 0.046626 0.131444
vt 0.035435 0.186628
vt 0.047022 0.649125
vt 0.048205 0.649125
vt 0.059071 0.699314
vt 0.036156 0.699314
vt 0.047715 0.363637
vt 0.035036 0.317793
vt 0.035976 0.309398
vt 0.048045 0.354512
vt 0.043004 0.224827
vt 0.043223 0.220785
vt 0.048312 0.287289
vt 0.047760 0.287637
vn 0.0000 -1.0000 0.0000
vn 0.0000 1.0000 0.0000
vn -0.7071 0.7071 0.0000
vn -0.3536 0.7071 -0.6124
vn 0.3536 0.7071 0.6124
vn 0.3536 0.7071 -0.6124
vn -0.3536 0.7071 0.6124
vn 0.7071 0.7071 0.0000
vn 0.5000 -0.0000 0.8660
vn 0.8660 0.0001 0.5000
vn 1.0000 0.0000 0.0000
vn -0.8660 0.0001 0.5000
vn 0.0000 0.0001 1.0000
vn -0.8660 0.0001 -0.5000
vn -0.5668 0.7561 -0.3272
vn 0.0000 0.7561 -0.6545
vn -0.5668 0.7561 0.3272
vn 0.0000 0.7561 0.6545
vn 0.5668 0.7561 0.3272
vn 0.5668 0.7561 -0.3272
vn 0.8660 0.0001 -0.5000
vn -1.0000 0.0000 0.0000
vn -0.5000 0.0000 -0.8660
vn 0.0000 0.0001 -1.0000
vn 0.5000 -0.0000 -0.8660
vn -0.5000 -0.0000 0.8660
s off
f 1/1/1 2/2/1 9/3/1 10/4/1 5/5/1 6/6/1
f 3/7/1 4/8/1 1/1/1 6/6/1
f 19/9/2 20/10/2 23/11/2 14/12/2
f 23/13/3 20/14/3 18/15/3 21/16/3
f 35/17/2 36/18/2 13/19/2 32/20/2
f 19/21/4 14/22/4 15/23/4 17/24/4
f 31/25/5 28/26/5 26/27/5 29/28/5
f 13/29/6 36/30/6 33/31/6 16/32/6
f 27/33/7 24/34/7 22/35/7 25/36/7
f 27/37/2 28/38/2 31/39/2 24/40/2
f 35/41/8 32/42/8 30/43/8 34/44/8
f 13/19/2 14/12/2 23/11/2 24/40/2 31/39/2 32/20/2
f 7/45/1 8/46/1 5/5/1 10/4/1
f 11/47/1 12/48/1 9/3/1 2/2/1
f 26/27/9 7/45/9 10/4/9 29/28/9
f 9/3/10 30/43/10 29/28/10 10/4/10
f 9/3/11 12/48/11 34/44/11 30/43/11
f 21/16/12 6/6/12 5/5/12 22/35/12
f 26/27/13 25/36/13 8/46/13 7/45/13
f 18/15/14 17/24/14 4/8/14 3/7/14
f 18/15/15 20/14/15 19/21/15 17/24/15
f 13/29/16 16/32/16 15/23/16 14/22/16
f 22/35/17 24/34/17 23/13/17 21/16/17
f 26/27/18 28/26/18 27/33/18 25/36/18
f 30/43/19 32/42/19 31/25/19 29/28/19
f 33/31/20 36/30/20 35/41/20 34/44/20
f 33/31/21 34/44/21 12/48/21 11/47/21
f 21/16/22 18/15/22 3/7/22 6/6/22
f 15/23/23 1/1/23 4/8/23 17/24/23
f 15/23/24 16/32/24 2/2/24 1/1/24
f 2/2/25 16/32/25 33/31/25 11/47/25
f 22/35/26 5/5/26 8/46/26 25/36/26
